# Tiled2Unity generated file. Do not modify by hand.
# Wavefront file for 'BILLARD_CASTLE_mesh_0003.obj'

# Vertices (Count = 232)
v -464 -1168 0
v -480 -1168 0
v -480 -1152 0
v -464 -1152 0
v -432 -1184 0
v -448 -1184 0
v -448 -1168 0
v -432 -1168 0
v -432 -1200 0
v -448 -1200 0
v -448 -1184 0
v -432 -1184 0
v -464 -1200 0
v -480 -1200 0
v -480 -1184 0
v -464 -1184 0
v -464 -1216 0
v -480 -1216 0
v -480 -1200 0
v -464 -1200 0
v -432 -1232 0
v -448 -1232 0
v -448 -1216 0
v -432 -1216 0
v -432 -1248 0
v -448 -1248 0
v -448 -1232 0
v -432 -1232 0
v -464 -1248 0
v -480 -1248 0
v -480 -1232 0
v -464 -1232 0
v -464 -1264 0
v -480 -1264 0
v -480 -1248 0
v -464 -1248 0
v -432 -1280 0
v -448 -1280 0
v -448 -1264 0
v -432 -1264 0
v -432 -1296 0
v -448 -1296 0
v -448 -1280 0
v -432 -1280 0
v -480 -1296 0
v -496 -1296 0
v -496 -1280 0
v -480 -1280 0
v -480 -1312 0
v -496 -1312 0
v -496 -1296 0
v -480 -1296 0
v 0 -1328 0
v -16 -1328 0
v -16 -1312 0
v 0 -1312 0
v -16 -1328 0
v -32 -1328 0
v -32 -1312 0
v -16 -1312 0
v -32 -1328 0
v -48 -1328 0
v -48 -1312 0
v -32 -1312 0
v -48 -1328 0
v -64 -1328 0
v -64 -1312 0
v -48 -1312 0
v -96 -1328 0
v -112 -1328 0
v -112 -1312 0
v -96 -1312 0
v -112 -1328 0
v -128 -1328 0
v -128 -1312 0
v -112 -1312 0
v -128 -1328 0
v -144 -1328 0
v -144 -1312 0
v -128 -1312 0
v -144 -1328 0
v -160 -1328 0
v -160 -1312 0
v -144 -1312 0
v -160 -1328 0
v -176 -1328 0
v -176 -1312 0
v -160 -1312 0
v -224 -1328 0
v -240 -1328 0
v -240 -1312 0
v -224 -1312 0
v -240 -1328 0
v -256 -1328 0
v -256 -1312 0
v -240 -1312 0
v -256 -1328 0
v -272 -1328 0
v -272 -1312 0
v -256 -1312 0
v -272 -1328 0
v -288 -1328 0
v -288 -1312 0
v -272 -1312 0
v -288 -1328 0
v -304 -1328 0
v -304 -1312 0
v -288 -1312 0
v -304 -1328 0
v -320 -1328 0
v -320 -1312 0
v -304 -1312 0
v -352 -1328 0
v -368 -1328 0
v -368 -1312 0
v -352 -1312 0
v -368 -1328 0
v -384 -1328 0
v -384 -1312 0
v -368 -1312 0
v -384 -1328 0
v -400 -1328 0
v -400 -1312 0
v -384 -1312 0
v -400 -1328 0
v -416 -1328 0
v -416 -1312 0
v -400 -1312 0
v 0 -1344 0
v -16 -1344 0
v -16 -1328 0
v 0 -1328 0
v -16 -1344 0
v -32 -1344 0
v -32 -1328 0
v -16 -1328 0
v -32 -1344 0
v -48 -1344 0
v -48 -1328 0
v -32 -1328 0
v -48 -1344 0
v -64 -1344 0
v -64 -1328 0
v -48 -1328 0
v -64 -1344 0
v -80 -1344 0
v -80 -1328 0
v -64 -1328 0
v -80 -1344 0
v -96 -1344 0
v -96 -1328 0
v -80 -1328 0
v -96 -1344 0
v -112 -1344 0
v -112 -1328 0
v -96 -1328 0
v -112 -1344 0
v -128 -1344 0
v -128 -1328 0
v -112 -1328 0
v -128 -1344 0
v -144 -1344 0
v -144 -1328 0
v -128 -1328 0
v -144 -1344 0
v -160 -1344 0
v -160 -1328 0
v -144 -1328 0
v -160 -1344 0
v -176 -1344 0
v -176 -1328 0
v -160 -1328 0
v -176 -1344 0
v -192 -1344 0
v -192 -1328 0
v -176 -1328 0
v -192 -1344 0
v -208 -1344 0
v -208 -1328 0
v -192 -1328 0
v -208 -1344 0
v -224 -1344 0
v -224 -1328 0
v -208 -1328 0
v -224 -1344 0
v -240 -1344 0
v -240 -1328 0
v -224 -1328 0
v -240 -1344 0
v -256 -1344 0
v -256 -1328 0
v -240 -1328 0
v -256 -1344 0
v -272 -1344 0
v -272 -1328 0
v -256 -1328 0
v -272 -1344 0
v -288 -1344 0
v -288 -1328 0
v -272 -1328 0
v -288 -1344 0
v -304 -1344 0
v -304 -1328 0
v -288 -1328 0
v -304 -1344 0
v -320 -1344 0
v -320 -1328 0
v -304 -1328 0
v -320 -1344 0
v -336 -1344 0
v -336 -1328 0
v -320 -1328 0
v -336 -1344 0
v -352 -1344 0
v -352 -1328 0
v -336 -1328 0
v -352 -1344 0
v -368 -1344 0
v -368 -1328 0
v -352 -1328 0
v -368 -1344 0
v -384 -1344 0
v -384 -1328 0
v -368 -1328 0
v -384 -1344 0
v -400 -1344 0
v -400 -1328 0
v -384 -1328 0
v -400 -1344 0
v -416 -1344 0
v -416 -1328 0
v -400 -1328 0

# Texture cooridinates (Count = 25)
vt 0.9375 0.6
vt 1 0.6
vt 1 0.7
vt 0.9375 0.7
vt 0.4375 0.9
vt 0.5 0.9
vt 0.5 1
vt 0.4375 1
vt 0.4375 0.8
vt 0.5 0.8
vt 0 0.8
vt 0.0625 0.8
vt 0.0625 0.9
vt 0 0.9
vt 0.25 0.7
vt 0.3125 0.7
vt 0.3125 0.8
vt 0.25 0.8
vt 0.125 0.8
vt 0.125 0.9
vt 0.1875 0.8
vt 0.1875 0.9
vt 0.25 0.9
vt 0.25 1
vt 0.1875 1

# Normal
vn 0 0 -1

# Mesh description
g BILLARD_CASTLE_mesh_0003

# Faces
f 1/1/1 2/2/1 3/3/1 4/4/1
f 5/5/1 6/6/1 7/7/1 8/8/1
f 9/9/1 10/10/1 11/6/1 12/5/1
f 13/5/1 14/6/1 15/7/1 16/8/1
f 17/9/1 18/10/1 19/6/1 20/5/1
f 21/5/1 22/6/1 23/7/1 24/8/1
f 25/9/1 26/10/1 27/6/1 28/5/1
f 29/5/1 30/6/1 31/7/1 32/8/1
f 33/9/1 34/10/1 35/6/1 36/5/1
f 37/5/1 38/6/1 39/7/1 40/8/1
f 41/9/1 42/10/1 43/6/1 44/5/1
f 45/5/1 46/6/1 47/7/1 48/8/1
f 49/9/1 50/10/1 51/6/1 52/5/1
f 53/11/1 54/12/1 55/13/1 56/14/1
f 57/15/1 58/16/1 59/17/1 60/18/1
f 61/12/1 62/19/1 63/20/1 64/13/1
f 65/19/1 66/21/1 67/22/1 68/20/1
f 69/19/1 70/21/1 71/22/1 72/20/1
f 73/11/1 74/12/1 75/13/1 76/14/1
f 77/15/1 78/16/1 79/17/1 80/18/1
f 81/19/1 82/21/1 83/22/1 84/20/1
f 85/19/1 86/21/1 87/22/1 88/20/1
f 89/19/1 90/21/1 91/22/1 92/20/1
f 93/19/1 94/21/1 95/22/1 96/20/1
f 97/19/1 98/21/1 99/22/1 100/20/1
f 101/22/1 102/23/1 103/24/1 104/25/1
f 105/19/1 106/21/1 107/22/1 108/20/1
f 109/19/1 110/21/1 111/22/1 112/20/1
f 113/11/1 114/12/1 115/13/1 116/14/1
f 117/11/1 118/12/1 119/13/1 120/14/1
f 121/22/1 122/23/1 123/24/1 124/25/1
f 125/19/1 126/21/1 127/22/1 128/20/1
f 129/11/1 130/12/1 131/13/1 132/14/1
f 133/21/1 134/18/1 135/23/1 136/22/1
f 137/19/1 138/21/1 139/22/1 140/20/1
f 141/19/1 142/21/1 143/22/1 144/20/1
f 145/11/1 146/12/1 147/13/1 148/14/1
f 149/21/1 150/18/1 151/23/1 152/22/1
f 153/19/1 154/21/1 155/22/1 156/20/1
f 157/11/1 158/12/1 159/13/1 160/14/1
f 161/21/1 162/18/1 163/23/1 164/22/1
f 165/11/1 166/12/1 167/13/1 168/14/1
f 169/11/1 170/12/1 171/13/1 172/14/1
f 173/15/1 174/16/1 175/17/1 176/18/1
f 177/11/1 178/12/1 179/13/1 180/14/1
f 181/11/1 182/12/1 183/13/1 184/14/1
f 185/15/1 186/16/1 187/17/1 188/18/1
f 189/11/1 190/12/1 191/13/1 192/14/1
f 193/11/1 194/12/1 195/13/1 196/14/1
f 197/11/1 198/12/1 199/13/1 200/14/1
f 201/11/1 202/12/1 203/13/1 204/14/1
f 205/11/1 206/12/1 207/13/1 208/14/1
f 209/15/1 210/16/1 211/17/1 212/18/1
f 213/11/1 214/12/1 215/13/1 216/14/1
f 217/12/1 218/19/1 219/20/1 220/13/1
f 221/11/1 222/12/1 223/13/1 224/14/1
f 225/12/1 226/19/1 227/20/1 228/13/1
f 229/19/1 230/21/1 231/22/1 232/20/1

