# Tiled2Unity generated file. Do not modify by hand.
# Wavefront file for 'BILLARD_CASTLE_mesh_0004.obj'

# Vertices (Count = 132)
v 0 -1312 0
v -16 -1312 0
v -16 -1296 0
v 0 -1296 0
v -16 -1312 0
v -32 -1312 0
v -32 -1296 0
v -16 -1296 0
v -32 -1312 0
v -48 -1312 0
v -48 -1296 0
v -32 -1296 0
v -48 -1312 0
v -64 -1312 0
v -64 -1296 0
v -48 -1296 0
v -64 -1312 0
v -80 -1312 0
v -80 -1296 0
v -64 -1296 0
v -80 -1312 0
v -96 -1312 0
v -96 -1296 0
v -80 -1296 0
v -96 -1312 0
v -112 -1312 0
v -112 -1296 0
v -96 -1296 0
v -112 -1312 0
v -128 -1312 0
v -128 -1296 0
v -112 -1296 0
v -128 -1312 0
v -144 -1312 0
v -144 -1296 0
v -128 -1296 0
v -144 -1312 0
v -160 -1312 0
v -160 -1296 0
v -144 -1296 0
v -160 -1312 0
v -176 -1312 0
v -176 -1296 0
v -160 -1296 0
v -176 -1312 0
v -192 -1312 0
v -192 -1296 0
v -176 -1296 0
v -192 -1312 0
v -208 -1312 0
v -208 -1296 0
v -192 -1296 0
v -208 -1312 0
v -224 -1312 0
v -224 -1296 0
v -208 -1296 0
v -224 -1312 0
v -240 -1312 0
v -240 -1296 0
v -224 -1296 0
v -240 -1312 0
v -256 -1312 0
v -256 -1296 0
v -240 -1296 0
v -256 -1312 0
v -272 -1312 0
v -272 -1296 0
v -256 -1296 0
v -272 -1312 0
v -288 -1312 0
v -288 -1296 0
v -272 -1296 0
v -288 -1312 0
v -304 -1312 0
v -304 -1296 0
v -288 -1296 0
v -304 -1312 0
v -320 -1312 0
v -320 -1296 0
v -304 -1296 0
v -320 -1312 0
v -336 -1312 0
v -336 -1296 0
v -320 -1296 0
v -336 -1312 0
v -352 -1312 0
v -352 -1296 0
v -336 -1296 0
v -352 -1312 0
v -368 -1312 0
v -368 -1296 0
v -352 -1296 0
v -368 -1312 0
v -384 -1312 0
v -384 -1296 0
v -368 -1296 0
v -384 -1312 0
v -400 -1312 0
v -400 -1296 0
v -384 -1296 0
v -400 -1312 0
v -416 -1312 0
v -416 -1296 0
v -400 -1296 0
v -64 -1328 0
v -80 -1328 0
v -80 -1312 0
v -64 -1312 0
v -80 -1328 0
v -96 -1328 0
v -96 -1312 0
v -80 -1312 0
v -176 -1328 0
v -192 -1328 0
v -192 -1312 0
v -176 -1312 0
v -192 -1328 0
v -208 -1328 0
v -208 -1312 0
v -192 -1312 0
v -208 -1328 0
v -224 -1328 0
v -224 -1312 0
v -208 -1312 0
v -320 -1328 0
v -336 -1328 0
v -336 -1312 0
v -320 -1312 0
v -336 -1328 0
v -352 -1328 0
v -352 -1312 0
v -336 -1312 0

# Texture cooridinates (Count = 16)
vt 0.625 0.6875
vt 0.6875 0.6875
vt 0.6875 0.75
vt 0.625 0.75
vt 0.75 0.6875
vt 0.75 0.75
vt 0.25 0.9375
vt 0.3125 0.9375
vt 0.3125 1
vt 0.25 1
vt 0.8125 0.6875
vt 0.8125 0.75
vt 0.875 0.6875
vt 0.875 0.75
vt 0.9375 0.6875
vt 0.9375 0.75

# Normal
vn 0 0 -1

# Mesh description
g BILLARD_CASTLE_mesh_0004

# Faces
f 1/1/1 2/2/1 3/3/1 4/4/1
f 5/2/1 6/5/1 7/6/1 8/3/1
f 9/1/1 10/2/1 11/3/1 12/4/1
f 13/2/1 14/5/1 15/6/1 16/3/1
f 17/1/1 18/2/1 19/3/1 20/4/1
f 21/2/1 22/5/1 23/6/1 24/3/1
f 25/1/1 26/2/1 27/3/1 28/4/1
f 29/2/1 30/5/1 31/6/1 32/3/1
f 33/1/1 34/2/1 35/3/1 36/4/1
f 37/2/1 38/5/1 39/6/1 40/3/1
f 41/1/1 42/2/1 43/3/1 44/4/1
f 45/2/1 46/5/1 47/6/1 48/3/1
f 49/1/1 50/2/1 51/3/1 52/4/1
f 53/2/1 54/5/1 55/6/1 56/3/1
f 57/1/1 58/2/1 59/3/1 60/4/1
f 61/2/1 62/5/1 63/6/1 64/3/1
f 65/1/1 66/2/1 67/3/1 68/4/1
f 69/2/1 70/5/1 71/6/1 72/3/1
f 73/1/1 74/2/1 75/3/1 76/4/1
f 77/2/1 78/5/1 79/6/1 80/3/1
f 81/1/1 82/2/1 83/3/1 84/4/1
f 85/2/1 86/5/1 87/6/1 88/3/1
f 89/1/1 90/2/1 91/3/1 92/4/1
f 93/2/1 94/5/1 95/6/1 96/3/1
f 97/1/1 98/2/1 99/3/1 100/4/1
f 101/2/1 102/5/1 103/6/1 104/3/1
f 105/7/1 106/8/1 107/9/1 108/10/1
f 109/7/1 110/8/1 111/9/1 112/10/1
f 113/7/1 114/8/1 115/9/1 116/10/1
f 117/5/1 118/11/1 119/12/1 120/6/1
f 121/5/1 122/11/1 123/12/1 124/6/1
f 125/11/1 126/13/1 127/14/1 128/12/1
f 129/13/1 130/15/1 131/16/1 132/14/1

