# Tiled2Unity generated file. Do not modify by hand.
# Wavefront file for 'billard_jardan_mesh_0001.obj'

# Vertices (Count = 484)
v 0 -128 0
v -16 -128 0
v -16 -112 0
v 0 -112 0
v -16 -128 0
v -32 -128 0
v -32 -112 0
v -16 -112 0
v -32 -128 0
v -48 -128 0
v -48 -112 0
v -32 -112 0
v -48 -128 0
v -64 -128 0
v -64 -112 0
v -48 -112 0
v -64 -128 0
v -80 -128 0
v -80 -112 0
v -64 -112 0
v -80 -128 0
v -96 -128 0
v -96 -112 0
v -80 -112 0
v -96 -128 0
v -112 -128 0
v -112 -112 0
v -96 -112 0
v -112 -128 0
v -128 -128 0
v -128 -112 0
v -112 -112 0
v -128 -128 0
v -144 -128 0
v -144 -112 0
v -128 -112 0
v -144 -128 0
v -160 -128 0
v -160 -112 0
v -144 -112 0
v -160 -128 0
v -176 -128 0
v -176 -112 0
v -160 -112 0
v -176 -128 0
v -192 -128 0
v -192 -112 0
v -176 -112 0
v -192 -128 0
v -208 -128 0
v -208 -112 0
v -192 -112 0
v -208 -128 0
v -224 -128 0
v -224 -112 0
v -208 -112 0
v -224 -128 0
v -240 -128 0
v -240 -112 0
v -224 -112 0
v -240 -128 0
v -256 -128 0
v -256 -112 0
v -240 -112 0
v -256 -128 0
v -272 -128 0
v -272 -112 0
v -256 -112 0
v -272 -128 0
v -288 -128 0
v -288 -112 0
v -272 -112 0
v -288 -128 0
v -304 -128 0
v -304 -112 0
v -288 -112 0
v -304 -128 0
v -320 -128 0
v -320 -112 0
v -304 -112 0
v -320 -128 0
v -336 -128 0
v -336 -112 0
v -320 -112 0
v -336 -128 0
v -352 -128 0
v -352 -112 0
v -336 -112 0
v -352 -128 0
v -368 -128 0
v -368 -112 0
v -352 -112 0
v -368 -128 0
v -384 -128 0
v -384 -112 0
v -368 -112 0
v -384 -128 0
v -400 -128 0
v -400 -112 0
v -384 -112 0
v -400 -128 0
v -416 -128 0
v -416 -112 0
v -400 -112 0
v -416 -128 0
v -432 -128 0
v -432 -112 0
v -416 -112 0
v -432 -128 0
v -448 -128 0
v -448 -112 0
v -432 -112 0
v 0 -144 0
v -16 -144 0
v -16 -128 0
v 0 -128 0
v -16 -144 0
v -32 -144 0
v -32 -128 0
v -16 -128 0
v -32 -144 0
v -48 -144 0
v -48 -128 0
v -32 -128 0
v -48 -144 0
v -64 -144 0
v -64 -128 0
v -48 -128 0
v -64 -144 0
v -80 -144 0
v -80 -128 0
v -64 -128 0
v -80 -144 0
v -96 -144 0
v -96 -128 0
v -80 -128 0
v -96 -144 0
v -112 -144 0
v -112 -128 0
v -96 -128 0
v -112 -144 0
v -128 -144 0
v -128 -128 0
v -112 -128 0
v -128 -144 0
v -144 -144 0
v -144 -128 0
v -128 -128 0
v -144 -144 0
v -160 -144 0
v -160 -128 0
v -144 -128 0
v -160 -144 0
v -176 -144 0
v -176 -128 0
v -160 -128 0
v -176 -144 0
v -192 -144 0
v -192 -128 0
v -176 -128 0
v -192 -144 0
v -208 -144 0
v -208 -128 0
v -192 -128 0
v -208 -144 0
v -224 -144 0
v -224 -128 0
v -208 -128 0
v -224 -144 0
v -240 -144 0
v -240 -128 0
v -224 -128 0
v -240 -144 0
v -256 -144 0
v -256 -128 0
v -240 -128 0
v -256 -144 0
v -272 -144 0
v -272 -128 0
v -256 -128 0
v -272 -144 0
v -288 -144 0
v -288 -128 0
v -272 -128 0
v -288 -144 0
v -304 -144 0
v -304 -128 0
v -288 -128 0
v -304 -144 0
v -320 -144 0
v -320 -128 0
v -304 -128 0
v -320 -144 0
v -336 -144 0
v -336 -128 0
v -320 -128 0
v -336 -144 0
v -352 -144 0
v -352 -128 0
v -336 -128 0
v -352 -144 0
v -368 -144 0
v -368 -128 0
v -352 -128 0
v -368 -144 0
v -384 -144 0
v -384 -128 0
v -368 -128 0
v -384 -144 0
v -400 -144 0
v -400 -128 0
v -384 -128 0
v -400 -144 0
v -416 -144 0
v -416 -128 0
v -400 -128 0
v -416 -144 0
v -432 -144 0
v -432 -128 0
v -416 -128 0
v -432 -144 0
v -448 -144 0
v -448 -128 0
v -432 -128 0
v 0 -160 0
v -16 -160 0
v -16 -144 0
v 0 -144 0
v -16 -160 0
v -32 -160 0
v -32 -144 0
v -16 -144 0
v -32 -160 0
v -48 -160 0
v -48 -144 0
v -32 -144 0
v -48 -160 0
v -64 -160 0
v -64 -144 0
v -48 -144 0
v -64 -160 0
v -80 -160 0
v -80 -144 0
v -64 -144 0
v -80 -160 0
v -96 -160 0
v -96 -144 0
v -80 -144 0
v -96 -160 0
v -112 -160 0
v -112 -144 0
v -96 -144 0
v -112 -160 0
v -128 -160 0
v -128 -144 0
v -112 -144 0
v -128 -160 0
v -144 -160 0
v -144 -144 0
v -128 -144 0
v -144 -160 0
v -160 -160 0
v -160 -144 0
v -144 -144 0
v -160 -160 0
v -176 -160 0
v -176 -144 0
v -160 -144 0
v -176 -160 0
v -192 -160 0
v -192 -144 0
v -176 -144 0
v -192 -160 0
v -208 -160 0
v -208 -144 0
v -192 -144 0
v -208 -160 0
v -224 -160 0
v -224 -144 0
v -208 -144 0
v -224 -160 0
v -240 -160 0
v -240 -144 0
v -224 -144 0
v -240 -160 0
v -256 -160 0
v -256 -144 0
v -240 -144 0
v -256 -160 0
v -272 -160 0
v -272 -144 0
v -256 -144 0
v -272 -160 0
v -288 -160 0
v -288 -144 0
v -272 -144 0
v -288 -160 0
v -304 -160 0
v -304 -144 0
v -288 -144 0
v -304 -160 0
v -320 -160 0
v -320 -144 0
v -304 -144 0
v -320 -160 0
v -336 -160 0
v -336 -144 0
v -320 -144 0
v -336 -160 0
v -352 -160 0
v -352 -144 0
v -336 -144 0
v -352 -160 0
v -368 -160 0
v -368 -144 0
v -352 -144 0
v -368 -160 0
v -384 -160 0
v -384 -144 0
v -368 -144 0
v -384 -160 0
v -400 -160 0
v -400 -144 0
v -384 -144 0
v -400 -160 0
v -416 -160 0
v -416 -144 0
v -400 -144 0
v -416 -160 0
v -432 -160 0
v -432 -144 0
v -416 -144 0
v -432 -160 0
v -448 -160 0
v -448 -144 0
v -432 -144 0
v 0 -176 0
v -16 -176 0
v -16 -160 0
v 0 -160 0
v -16 -176 0
v -32 -176 0
v -32 -160 0
v -16 -160 0
v -32 -176 0
v -48 -176 0
v -48 -160 0
v -32 -160 0
v -48 -176 0
v -64 -176 0
v -64 -160 0
v -48 -160 0
v -64 -176 0
v -80 -176 0
v -80 -160 0
v -64 -160 0
v -80 -176 0
v -96 -176 0
v -96 -160 0
v -80 -160 0
v -96 -176 0
v -112 -176 0
v -112 -160 0
v -96 -160 0
v -112 -176 0
v -128 -176 0
v -128 -160 0
v -112 -160 0
v -128 -176 0
v -144 -176 0
v -144 -160 0
v -128 -160 0
v -144 -176 0
v -160 -176 0
v -160 -160 0
v -144 -160 0
v -160 -176 0
v -176 -176 0
v -176 -160 0
v -160 -160 0
v -176 -176 0
v -192 -176 0
v -192 -160 0
v -176 -160 0
v -192 -176 0
v -208 -176 0
v -208 -160 0
v -192 -160 0
v -208 -176 0
v -224 -176 0
v -224 -160 0
v -208 -160 0
v -224 -176 0
v -240 -176 0
v -240 -160 0
v -224 -160 0
v -240 -176 0
v -256 -176 0
v -256 -160 0
v -240 -160 0
v -256 -176 0
v -272 -176 0
v -272 -160 0
v -256 -160 0
v -272 -176 0
v -288 -176 0
v -288 -160 0
v -272 -160 0
v -288 -176 0
v -304 -176 0
v -304 -160 0
v -288 -160 0
v -304 -176 0
v -320 -176 0
v -320 -160 0
v -304 -160 0
v -320 -176 0
v -336 -176 0
v -336 -160 0
v -320 -160 0
v -336 -176 0
v -352 -176 0
v -352 -160 0
v -336 -160 0
v -352 -176 0
v -368 -176 0
v -368 -160 0
v -352 -160 0
v -368 -176 0
v -384 -176 0
v -384 -160 0
v -368 -160 0
v -384 -176 0
v -400 -176 0
v -400 -160 0
v -384 -160 0
v -400 -176 0
v -416 -176 0
v -416 -160 0
v -400 -160 0
v -416 -176 0
v -432 -176 0
v -432 -160 0
v -416 -160 0
v -432 -176 0
v -448 -176 0
v -448 -160 0
v -432 -160 0
v -272 -192 0
v -288 -192 0
v -288 -176 0
v -272 -176 0
v -288 -192 0
v -304 -192 0
v -304 -176 0
v -288 -176 0
v -304 -192 0
v -320 -192 0
v -320 -176 0
v -304 -176 0
v -320 -192 0
v -336 -192 0
v -336 -176 0
v -320 -176 0
v -336 -192 0
v -352 -192 0
v -352 -176 0
v -336 -176 0
v -272 -208 0
v -288 -208 0
v -288 -192 0
v -272 -192 0
v -288 -208 0
v -304 -208 0
v -304 -192 0
v -288 -192 0
v -304 -208 0
v -320 -208 0
v -320 -192 0
v -304 -192 0
v -320 -208 0
v -336 -208 0
v -336 -192 0
v -320 -192 0

# Texture cooridinates (Count = 25)
vt 0.1875 0.59375
vt 0.21875 0.59375
vt 0.21875 0.625
vt 0.1875 0.625
vt 0.25 0.59375
vt 0.25 0.625
vt 0.28125 0.59375
vt 0.28125 0.625
vt 0.3125 0.59375
vt 0.3125 0.625
vt 0.1875 0.5625
vt 0.21875 0.5625
vt 0.25 0.5625
vt 0.28125 0.5625
vt 0.3125 0.5625
vt 0.1875 0.53125
vt 0.21875 0.53125
vt 0.25 0.53125
vt 0.28125 0.53125
vt 0.3125 0.53125
vt 0.1875 0.5
vt 0.21875 0.5
vt 0.25 0.5
vt 0.28125 0.5
vt 0.3125 0.5

# Normal
vn 0 0 -1

# Mesh description
g billard_jardan_mesh_0001

# Faces
f 1/1/1 2/2/1 3/3/1 4/4/1
f 5/2/1 6/5/1 7/6/1 8/3/1
f 9/5/1 10/7/1 11/8/1 12/6/1
f 13/7/1 14/9/1 15/10/1 16/8/1
f 17/1/1 18/2/1 19/3/1 20/4/1
f 21/2/1 22/5/1 23/6/1 24/3/1
f 25/5/1 26/7/1 27/8/1 28/6/1
f 29/7/1 30/9/1 31/10/1 32/8/1
f 33/1/1 34/2/1 35/3/1 36/4/1
f 37/2/1 38/5/1 39/6/1 40/3/1
f 41/5/1 42/7/1 43/8/1 44/6/1
f 45/7/1 46/9/1 47/10/1 48/8/1
f 49/1/1 50/2/1 51/3/1 52/4/1
f 53/2/1 54/5/1 55/6/1 56/3/1
f 57/5/1 58/7/1 59/8/1 60/6/1
f 61/7/1 62/9/1 63/10/1 64/8/1
f 65/1/1 66/2/1 67/3/1 68/4/1
f 69/2/1 70/5/1 71/6/1 72/3/1
f 73/5/1 74/7/1 75/8/1 76/6/1
f 77/7/1 78/9/1 79/10/1 80/8/1
f 81/1/1 82/2/1 83/3/1 84/4/1
f 85/2/1 86/5/1 87/6/1 88/3/1
f 89/5/1 90/7/1 91/8/1 92/6/1
f 93/7/1 94/9/1 95/10/1 96/8/1
f 97/1/1 98/2/1 99/3/1 100/4/1
f 101/2/1 102/5/1 103/6/1 104/3/1
f 105/5/1 106/7/1 107/8/1 108/6/1
f 109/7/1 110/9/1 111/10/1 112/8/1
f 113/11/1 114/12/1 115/2/1 116/1/1
f 117/12/1 118/13/1 119/5/1 120/2/1
f 121/13/1 122/14/1 123/7/1 124/5/1
f 125/14/1 126/15/1 127/9/1 128/7/1
f 129/11/1 130/12/1 131/2/1 132/1/1
f 133/12/1 134/13/1 135/5/1 136/2/1
f 137/13/1 138/14/1 139/7/1 140/5/1
f 141/14/1 142/15/1 143/9/1 144/7/1
f 145/11/1 146/12/1 147/2/1 148/1/1
f 149/12/1 150/13/1 151/5/1 152/2/1
f 153/13/1 154/14/1 155/7/1 156/5/1
f 157/14/1 158/15/1 159/9/1 160/7/1
f 161/11/1 162/12/1 163/2/1 164/1/1
f 165/12/1 166/13/1 167/5/1 168/2/1
f 169/13/1 170/14/1 171/7/1 172/5/1
f 173/14/1 174/15/1 175/9/1 176/7/1
f 177/11/1 178/12/1 179/2/1 180/1/1
f 181/12/1 182/13/1 183/5/1 184/2/1
f 185/13/1 186/14/1 187/7/1 188/5/1
f 189/14/1 190/15/1 191/9/1 192/7/1
f 193/11/1 194/12/1 195/2/1 196/1/1
f 197/12/1 198/13/1 199/5/1 200/2/1
f 201/13/1 202/14/1 203/7/1 204/5/1
f 205/14/1 206/15/1 207/9/1 208/7/1
f 209/11/1 210/12/1 211/2/1 212/1/1
f 213/12/1 214/13/1 215/5/1 216/2/1
f 217/13/1 218/14/1 219/7/1 220/5/1
f 221/14/1 222/15/1 223/9/1 224/7/1
f 225/16/1 226/17/1 227/12/1 228/11/1
f 229/17/1 230/18/1 231/13/1 232/12/1
f 233/18/1 234/19/1 235/14/1 236/13/1
f 237/19/1 238/20/1 239/15/1 240/14/1
f 241/16/1 242/17/1 243/12/1 244/11/1
f 245/17/1 246/18/1 247/13/1 248/12/1
f 249/18/1 250/19/1 251/14/1 252/13/1
f 253/19/1 254/20/1 255/15/1 256/14/1
f 257/16/1 258/17/1 259/12/1 260/11/1
f 261/17/1 262/18/1 263/13/1 264/12/1
f 265/18/1 266/19/1 267/14/1 268/13/1
f 269/19/1 270/20/1 271/15/1 272/14/1
f 273/16/1 274/17/1 275/12/1 276/11/1
f 277/17/1 278/18/1 279/13/1 280/12/1
f 281/18/1 282/19/1 283/14/1 284/13/1
f 285/19/1 286/20/1 287/15/1 288/14/1
f 289/16/1 290/17/1 291/12/1 292/11/1
f 293/17/1 294/18/1 295/13/1 296/12/1
f 297/18/1 298/19/1 299/14/1 300/13/1
f 301/19/1 302/20/1 303/15/1 304/14/1
f 305/16/1 306/17/1 307/12/1 308/11/1
f 309/17/1 310/18/1 311/13/1 312/12/1
f 313/18/1 314/19/1 315/14/1 316/13/1
f 317/19/1 318/20/1 319/15/1 320/14/1
f 321/16/1 322/17/1 323/12/1 324/11/1
f 325/17/1 326/18/1 327/13/1 328/12/1
f 329/18/1 330/19/1 331/14/1 332/13/1
f 333/19/1 334/20/1 335/15/1 336/14/1
f 337/21/1 338/22/1 339/17/1 340/16/1
f 341/22/1 342/23/1 343/18/1 344/17/1
f 345/23/1 346/24/1 347/19/1 348/18/1
f 349/24/1 350/25/1 351/20/1 352/19/1
f 353/21/1 354/22/1 355/17/1 356/16/1
f 357/22/1 358/23/1 359/18/1 360/17/1
f 361/23/1 362/24/1 363/19/1 364/18/1
f 365/24/1 366/25/1 367/20/1 368/19/1
f 369/21/1 370/22/1 371/17/1 372/16/1
f 373/22/1 374/23/1 375/18/1 376/17/1
f 377/23/1 378/24/1 379/19/1 380/18/1
f 381/24/1 382/25/1 383/20/1 384/19/1
f 385/21/1 386/22/1 387/17/1 388/16/1
f 389/22/1 390/23/1 391/18/1 392/17/1
f 393/23/1 394/24/1 395/19/1 396/18/1
f 397/24/1 398/25/1 399/20/1 400/19/1
f 401/21/1 402/22/1 403/17/1 404/16/1
f 405/22/1 406/23/1 407/18/1 408/17/1
f 409/23/1 410/24/1 411/19/1 412/18/1
f 413/24/1 414/25/1 415/20/1 416/19/1
f 417/21/1 418/22/1 419/17/1 420/16/1
f 421/22/1 422/23/1 423/18/1 424/17/1
f 425/23/1 426/24/1 427/19/1 428/18/1
f 429/24/1 430/25/1 431/20/1 432/19/1
f 433/21/1 434/22/1 435/17/1 436/16/1
f 437/22/1 438/23/1 439/18/1 440/17/1
f 441/23/1 442/24/1 443/19/1 444/18/1
f 445/24/1 446/25/1 447/20/1 448/19/1
f 449/16/1 450/17/1 451/12/1 452/11/1
f 453/21/1 454/22/1 455/17/1 456/16/1
f 457/22/1 458/23/1 459/18/1 460/17/1
f 461/23/1 462/24/1 463/19/1 464/18/1
f 465/24/1 466/25/1 467/20/1 468/19/1
f 469/21/1 470/22/1 471/17/1 472/16/1
f 473/22/1 474/23/1 475/18/1 476/17/1
f 477/23/1 478/24/1 479/19/1 480/18/1
f 481/24/1 482/25/1 483/20/1 484/19/1

